<svg width="30" height="30" viewBox="0 0 30 30" fill="none" xmlns="http://www.w3.org/2000/svg">
<g clip-path="url(#clip0_48_15)">
<mask id="mask0_48_15" style="mask-type:luminance" maskUnits="userSpaceOnUse" x="0" y="0" width="30" height="30">
<path d="M15 30C23.2843 30 30 23.2843 30 15C30 6.71565 23.2843 6.70552e-07 15 6.70552e-07C6.71573 6.70552e-07 0 6.71565 0 15C0 23.2843 6.71573 30 15 30ZM8.38177 7.93065V13.0329C9.15826 12.1071 10.0894 11.6406 11.1694 11.6406C11.7259 11.6406 12.2241 11.7465 12.6706 11.9577C13.1188 12.1671 13.4541 12.4359 13.68 12.7619C13.9076 13.0913 14.0611 13.4519 14.1441 13.8494C14.227 14.2448 14.2682 14.8607 14.2682 15.6953V21.1512H11.8541V16.2377C11.8541 15.2623 11.8106 14.6446 11.7188 14.3823C11.6271 14.1181 11.4659 13.9106 11.2341 13.7577C11.0017 13.6007 10.7123 13.523 10.3629 13.523C9.96351 13.523 9.60409 13.6234 9.29238 13.8217C8.97409 14.0218 8.7447 14.3207 8.59998 14.72C8.45232 15.12 8.37885 15.7106 8.38177 16.4923L8.37885 21.1512H5.96824V7.93065H8.38177ZM17.8858 7.93065V13.0329C18.663 12.1071 19.5934 11.6406 20.6734 11.6406C21.2277 11.6406 21.7288 11.7465 22.177 11.9577C22.623 12.1671 22.9582 12.4359 23.1835 12.7619C23.4112 13.0913 23.5653 13.4519 23.6476 13.8494C23.7306 14.2448 23.7719 14.8607 23.7719 15.6953V21.1512H21.3606V16.2377C21.3606 15.2623 21.3153 14.6446 21.2229 14.3823C21.1312 14.1181 20.9706 13.9106 20.7376 13.7577C20.5077 13.6007 20.216 13.523 19.8665 13.523C19.467 13.523 19.1082 13.6234 18.7959 13.8217C18.4812 14.0218 18.2512 14.3207 18.1041 14.72C17.9593 15.12 17.8858 15.7106 17.8858 16.4923V21.1512H15.4748V7.93065H17.8858Z" fill="white"/>
</mask>
<g mask="url(#mask0_48_15)">
<mask id="mask1_48_15" style="mask-type:luminance" maskUnits="userSpaceOnUse" x="0" y="0" width="30" height="30">
<path d="M0 30H30V6.70552e-07H0V30Z" fill="white"/>
</mask>
<g mask="url(#mask1_48_15)">
<path d="M0 30H31.5V-1.5H0V30Z" fill="white"/>
</g>
</g>
</g>
<defs>
<clipPath id="clip0_48_15">
<rect width="30" height="30" fill="white"/>
</clipPath>
</defs>
</svg>
