<svg width="30" height="30" viewBox="0 0 30 30" fill="none" xmlns="http://www.w3.org/2000/svg">
<g clip-path="url(#clip0_48_28)">
<path d="M20.7393 9.4125C20.745 9.4125 20.7525 9.4125 20.76 9.4125C20.9559 9.4125 21.1378 9.47344 21.2868 9.57844L21.284 9.57656C21.3928 9.67125 21.4659 9.80438 21.4837 9.95438V9.95719C21.5025 10.0716 21.5128 10.2028 21.5128 10.3369C21.5128 10.3978 21.5109 10.4578 21.5062 10.5178V10.5094C21.2953 12.7303 20.3803 18.1163 19.9153 20.6025C19.7184 21.6553 19.3312 22.0078 18.9562 22.0416C18.1415 22.1175 17.5228 21.5034 16.7334 20.9859C15.4978 20.175 14.7993 19.6706 13.6003 18.8803C12.2137 17.9681 13.1128 17.4647 13.9021 16.6453C14.1093 16.4297 17.7009 13.1625 17.7712 12.8663C17.775 12.8484 17.7768 12.8288 17.7768 12.8081C17.7768 12.735 17.7496 12.6684 17.7056 12.6178C17.6568 12.5859 17.5959 12.5681 17.5321 12.5681C17.49 12.5681 17.4496 12.5766 17.4121 12.5906L17.414 12.5897C17.2903 12.6178 15.3165 13.9222 11.4928 16.5028C11.0756 16.8319 10.5487 17.04 9.97495 17.0644H9.96933C9.15651 16.9659 8.4187 16.785 7.71839 16.5272L7.78776 16.5497C6.90839 16.2628 6.20995 16.1119 6.26995 15.6262C6.30183 15.3737 6.64995 15.1153 7.31433 14.8509C11.4068 13.0678 14.1359 11.8925 15.5015 11.325C17.0081 10.5253 18.7546 9.86719 20.5912 9.44063L20.7384 9.41156L20.7393 9.4125ZM14.9343 0.960938C7.1512 0.979687 0.848389 7.29375 0.848389 15.0797C0.848389 22.8769 7.16901 29.1984 14.9671 29.1984C22.7653 29.1984 29.0859 22.8778 29.0859 15.0797C29.0859 7.29375 22.7831 0.979687 15.0018 0.960938H15C14.9781 0.960938 14.9562 0.960938 14.9343 0.960938Z" fill="white"/>
</g>
<defs>
<clipPath id="clip0_48_28">
<rect width="30" height="30" fill="white"/>
</clipPath>
</defs>
</svg>
