<svg width="70" height="70" viewBox="0 0 70 70" fill="none" xmlns="http://www.w3.org/2000/svg">
<g clip-path="url(#clip0_54_6)">
<path d="M70 0H0V70H70V0Z" fill="#FFCA28"/>
<path d="M41.5625 55.3173L46.072 52.3331C46.4255 53.4435 48.6636 56.0805 51.4905 56.0805C54.3174 56.0805 55.6299 54.5366 55.6299 53.5128C55.6299 50.7233 52.7432 49.7398 51.3568 49.2675C51.1306 49.1905 50.9447 49.1271 50.8174 49.0717C50.752 49.0433 50.6533 49.0055 50.5267 48.9571C48.9847 48.368 43.2957 46.1945 43.2957 39.8941C43.2957 32.9547 49.9927 32.1567 51.5073 32.1567C52.498 32.1567 57.262 32.2781 59.6345 36.7366L55.2595 39.7902C54.3005 37.847 52.7069 37.2052 51.7261 37.2052C49.303 37.2052 48.7981 38.9815 48.7981 39.7902C48.7981 42.0591 51.4307 43.076 53.6535 43.9346C54.2351 44.1593 54.7886 44.373 55.2595 44.5957C57.6826 45.7406 61.25 47.6144 61.25 53.5128C61.25 56.4672 58.772 61.2504 52.5337 61.2504C44.1538 61.2504 41.9326 56.2194 41.5625 55.3173Z" fill="#3E3E3E"/>
<path d="M19.6875 55.9096L24.3878 52.9272C24.7559 54.0369 26.1872 56.0831 28.2636 56.0831C30.3402 56.0831 31.4031 53.9503 31.4031 52.9272V32.8129H37.1836V52.9272C37.2772 55.7016 35.7385 61.2504 28.9476 61.2504C22.7041 61.2504 20.1084 57.5398 19.6875 55.9096Z" fill="#3E3E3E"/>
</g>
<defs>
<clipPath id="clip0_54_6">
<rect width="70" height="70" fill="white"/>
</clipPath>
</defs>
</svg>
