<svg width="70" height="70" viewBox="0 0 70 70" fill="none" xmlns="http://www.w3.org/2000/svg">
<path d="M58.3538 52.6444C57.9163 52.1544 57.715 51.2488 57.4919 50.2819C57.2731 49.3194 57.0238 48.2825 56.2319 47.6131V47.6088C55.943 47.3584 55.6129 47.1601 55.2563 47.0225C56.3588 43.7631 55.9256 40.5169 54.8188 37.5856C53.4538 33.985 51.0782 30.8481 49.2625 28.7044C47.2325 26.1406 45.2463 23.7081 45.2813 20.1163C45.3425 14.63 45.885 4.45813 36.2338 4.44501C35.84 4.44501 35.4331 4.46251 35.0088 4.49751C24.22 5.36376 27.0813 16.7606 26.9194 20.5756C26.7225 23.3669 26.1582 25.5631 24.2375 28.2931C21.9844 30.975 18.8125 35.3106 17.3075 39.83C16.5988 41.9606 16.2575 44.135 16.5725 46.1913C16.4719 46.2788 16.38 46.3706 16.2925 46.4669C15.6319 47.1713 15.1419 48.0288 14.595 48.6063C14.0875 49.1138 13.3613 49.3063 12.565 49.5906C11.7644 49.8794 10.8894 50.2994 10.36 51.3188V51.3231C10.1252 51.7814 10.0093 52.2915 10.0232 52.8063C10.0232 53.2788 10.0932 53.7556 10.1632 54.215C10.3119 55.1775 10.4607 56.0831 10.2638 56.6956C9.63378 58.4238 9.55065 59.6138 9.9969 60.48C10.4432 61.3506 11.3532 61.7313 12.39 61.9456C14.4594 62.3831 17.2638 62.2738 19.4732 63.4419C21.8357 64.68 24.2375 65.1175 26.1494 64.6844C26.8179 64.5531 27.446 64.266 27.9827 63.8464C28.5194 63.4268 28.9495 62.8865 29.2382 62.2694C30.7344 62.2606 32.375 61.6306 35.0044 61.4819C36.7894 61.3419 39.0206 62.1163 41.58 61.9763C41.6464 62.2542 41.7463 62.523 41.8775 62.7769L41.8819 62.7813C42.875 64.7719 44.7257 65.6775 46.6944 65.5244C48.6632 65.3669 50.7544 64.2075 52.4475 62.1906C54.0663 60.2306 56.7438 59.4213 58.52 58.3494C59.4082 57.8113 60.13 57.1419 60.1825 56.1663C60.2394 55.195 59.6663 54.1056 58.3538 52.6444Z" fill="#202020"/>
<path d="M59.3732 56.1225C59.3426 56.7219 58.9051 57.1725 58.1044 57.6537C56.4944 58.625 53.6463 59.465 51.8307 61.67C50.2469 63.5512 48.3219 64.5794 46.6244 64.715C44.9313 64.8462 43.4701 64.1462 42.6038 62.4137V62.405C42.0657 61.3856 42.2888 59.78 42.7394 58.0869C43.1901 56.3937 43.8376 54.6525 43.9251 53.2394C44.0126 51.4237 44.1176 49.84 44.4238 48.6194C44.7301 47.3944 45.2069 46.5719 46.0557 46.1037C46.0947 46.0826 46.1341 46.0622 46.1738 46.0425C46.2701 47.6131 47.0488 49.2144 48.4226 49.56C49.9232 49.9537 52.0888 48.6675 53.0032 47.6131L53.5369 47.5956C54.3419 47.5737 55.0113 47.6219 55.7026 48.2212C56.2319 48.6675 56.4857 49.5206 56.7044 50.4656C56.9232 51.415 57.0982 52.4475 57.7501 53.1825C59.0057 54.5825 59.4126 55.5187 59.3732 56.1225ZM28.8401 60.5631V60.5762C28.6913 62.4794 27.6151 63.5162 25.9701 63.8925C24.3207 64.2687 22.0851 63.8925 19.8538 62.7287C17.3819 61.4162 14.4419 61.5475 12.5607 61.1537C11.6157 60.9569 10.9988 60.6594 10.7188 60.1125C10.4388 59.5612 10.4301 58.6031 11.0294 56.9625V56.9581L11.0338 56.9494C11.3313 56.035 11.1126 55.0331 10.9682 54.0925C10.8238 53.1562 10.7538 52.2987 11.0732 51.7037L11.0776 51.6994C11.4888 50.9075 12.0926 50.6231 12.8407 50.3562C13.5844 50.085 14.4726 49.875 15.1726 49.175L15.1769 49.1706C15.8244 48.4837 16.3188 47.6262 16.8876 47.0181C17.3688 46.5062 17.8501 46.165 18.5719 46.1606H18.5938C18.7301 46.1619 18.8662 46.1736 19.0007 46.1956C19.9632 46.34 20.7988 47.0137 21.6082 48.1075L23.9401 52.3556V52.36C24.5613 53.655 25.8694 55.0812 26.9807 56.5337C28.0919 57.9906 28.9494 59.4475 28.8401 60.5631Z" fill="#F8BF11"/>
<path d="M40.4688 20.9475C40.2807 20.58 39.9001 20.23 39.2438 19.9631C37.8876 19.3812 37.3013 19.3419 36.5444 18.8519C35.3194 18.06 34.3001 17.7844 33.4557 17.7844C33.0504 17.7863 32.6482 17.8558 32.2657 17.99C31.2332 18.34 30.5507 19.0837 30.1219 19.4862C30.0344 19.5694 29.9294 19.6394 29.6669 19.8362C29.4044 20.0244 29.0107 20.3175 28.4419 20.7462C27.9301 21.1225 27.7682 21.6212 27.9432 22.1987C28.1182 22.7762 28.6738 23.4456 29.6932 24.0231C30.3276 24.395 30.7651 24.8981 31.2638 25.2962C31.5143 25.5045 31.7926 25.6767 32.0907 25.8081C32.4057 25.9437 32.7732 26.0356 33.2282 26.0619C34.3132 26.1275 35.1094 25.7994 35.8094 25.4012C36.5094 24.9987 37.1044 24.5087 37.7869 24.2856C39.1869 23.8481 40.1888 22.9687 40.5038 22.1287C40.5833 21.9409 40.6213 21.7382 40.6153 21.5343C40.6093 21.3304 40.5593 21.1303 40.4688 20.9475Z" fill="#D6A312"/>
<path d="M36.9162 23.0125C35.8006 23.5944 34.5012 24.2987 33.1143 24.2987C31.7318 24.2987 30.6381 23.66 29.8549 23.0344C29.4612 22.7281 29.1418 22.4131 28.9012 22.19C28.4812 21.8619 28.5337 21.3981 28.7043 21.4112C28.9931 21.4462 29.0368 21.8269 29.2162 21.9975C29.4612 22.225 29.7674 22.5225 30.1393 22.8156C30.8831 23.4062 31.8762 23.9794 33.1143 23.9794C34.3568 23.9794 35.8006 23.2531 36.6843 22.7544C37.1874 22.4744 37.8218 21.9712 38.3424 21.5906C38.7362 21.2975 38.7231 20.9475 39.0512 20.9869C39.3793 21.0262 39.1387 21.3762 38.6793 21.7744C38.2199 22.1769 37.4981 22.7106 36.9162 23.0125Z" fill="#202020"/>
<path d="M53.9744 46.7863C53.8228 46.7817 53.6711 46.7817 53.5194 46.7863H53.4757C53.8607 45.5744 53.0119 44.6863 50.7588 43.6669C48.4226 42.6388 46.5588 42.7394 46.2438 44.8263C46.2219 44.9357 46.2044 45.045 46.1957 45.1588C46.0145 45.223 45.8389 45.302 45.6707 45.395C44.5682 45.9944 43.9688 47.0838 43.6363 48.4225C43.3038 49.7569 43.2076 51.3713 43.1157 53.1913C43.0588 54.1013 42.6826 55.335 42.3019 56.6475C38.4738 59.3775 33.1582 60.5588 28.6432 57.4788C28.3369 56.9975 27.9869 56.5163 27.6238 56.0438C27.3933 55.7426 27.1599 55.4437 26.9238 55.1469C27.3257 55.1577 27.7253 55.0831 28.0963 54.9282C28.2817 54.8504 28.4493 54.7359 28.5892 54.5915C28.7291 54.4471 28.8382 54.2759 28.9101 54.0882C29.1857 53.3444 28.9101 52.3031 28.0263 51.1131C27.1469 49.9188 25.6551 48.5757 23.4632 47.2282C21.8532 46.2219 20.9519 44.9969 20.5319 43.6669C20.1076 42.3325 20.1644 40.8888 20.4882 39.4669C21.1138 36.7325 22.7194 34.0725 23.7388 32.4057C24.0144 32.2044 23.8394 32.7819 22.7063 34.8863C21.6913 36.8113 19.7882 41.2519 22.3913 44.7213C22.4613 42.2538 23.0476 39.7338 24.0407 37.3844C25.4801 34.1163 28.4944 28.455 28.7307 23.94C28.8576 24.0275 29.2776 24.3163 29.4701 24.4213C30.0213 24.7494 30.4369 25.2263 30.9751 25.6594C31.6768 26.2517 32.5729 26.5633 33.4907 26.5344C34.5407 26.5344 35.3588 26.1888 36.0369 25.7994C36.7807 25.3794 37.3669 24.9069 37.9313 24.7275C39.1126 24.3557 40.0576 23.6994 40.5913 22.9338C41.5101 26.565 43.6538 31.8019 45.0276 34.3569C45.7582 35.7132 47.2151 38.5963 47.8407 42.0657C48.2388 42.0569 48.6763 42.1094 49.1488 42.2319C50.7894 37.975 47.7532 33.3857 46.3663 32.1082C45.8063 31.5657 45.7757 31.3207 46.0601 31.3338C47.5607 32.6638 49.5382 35.3457 50.2601 38.3688C50.5882 39.7469 50.6538 41.195 50.3038 42.6257C50.4788 42.7 50.6538 42.7744 50.8288 42.8619C53.4669 44.1438 54.4426 45.2594 53.9744 46.7863Z" fill="white"/>
<path d="M35.175 35.2712C32.7425 35.28 30.3669 36.3694 28.3588 38.4037C26.3463 40.4337 24.7975 43.3125 23.905 46.6637L24.1719 46.83V46.8475C26.2282 48.1512 27.6938 49.4637 28.5994 50.6887C29.5575 51.9837 29.9819 53.2437 29.575 54.3375C29.3602 54.89 28.9356 55.3351 28.3938 55.5756L28.2144 55.6412C28.5382 56.0656 28.8532 56.5031 29.1463 56.9537C33.2763 59.7012 38.08 58.6862 41.6894 56.2012C42.0394 54.985 42.3588 53.8562 42.4025 53.1475C42.4944 51.3319 42.5863 49.6825 42.945 48.2475C43.3038 46.8037 44.0038 45.4912 45.325 44.7694C45.3994 44.7256 45.4738 44.7037 45.5482 44.6687C45.5714 44.5297 45.6036 44.3924 45.6444 44.2575C44.5857 41.5362 43.0588 39.27 41.2257 37.695C39.3882 36.12 37.3013 35.2844 35.1794 35.2712H35.175ZM45.5438 44.6994L45.535 44.7212V44.7125L45.5394 44.695L45.5438 44.6994Z" fill="#E6E6E6"/>
<path d="M40.5911 16.7694C40.61 17.8047 40.2786 18.8161 39.6505 19.6394C39.3364 19.4991 39.0184 19.3678 38.6968 19.2456L38.1411 19.0488C38.268 18.8956 38.513 18.7206 38.6093 18.4931C38.7478 18.1555 38.822 17.7949 38.828 17.43L38.8324 17.3863C38.8432 17.0357 38.7914 16.6861 38.6793 16.3538C38.5912 16.0503 38.4288 15.7736 38.2068 15.5488C38.1187 15.4553 38.0132 15.3802 37.896 15.3276C37.7789 15.2751 37.6526 15.2462 37.5243 15.2425H37.4936C37.2487 15.2459 37.0135 15.3394 36.833 15.505C36.5942 15.7118 36.4107 15.975 36.2993 16.2706C36.1614 16.6085 36.0872 16.9689 36.0805 17.3338V17.3775C36.0736 17.5825 36.0868 17.7876 36.1199 17.99C35.6236 17.7609 35.1044 17.585 34.5711 17.465C34.5457 17.272 34.5311 17.0778 34.5274 16.8831V16.8263C34.5089 16.1539 34.6404 15.4858 34.9124 14.8706C35.144 14.3042 35.5214 13.8091 36.0061 13.4356C36.4349 13.0894 36.9688 12.8996 37.5199 12.8975H37.5461C38.093 12.8975 38.5611 13.055 39.0424 13.405C39.5379 13.7677 39.9263 14.2575 40.1668 14.8225C40.4424 15.4263 40.578 16.0169 40.5911 16.7169L40.5955 16.7694H40.5911ZM32.3224 17.4869C31.894 17.6095 31.4858 17.7937 31.1105 18.0338C31.1399 17.8162 31.1428 17.5958 31.1193 17.3775V17.3425C31.0925 17.0535 31.0217 16.7702 30.9093 16.5025C30.8192 16.267 30.6754 16.0558 30.4893 15.8856C30.4209 15.8185 30.3393 15.7664 30.2496 15.7325C30.16 15.6986 30.0643 15.6837 29.9686 15.6888C29.7849 15.7063 29.6318 15.7938 29.4874 15.9731C29.3337 16.1738 29.2288 16.4075 29.1811 16.6556C29.1129 16.9494 29.0937 17.2525 29.1243 17.5525V17.5875C29.1494 17.8783 29.2203 18.1632 29.3343 18.4319C29.439 18.7009 29.6143 18.9367 29.8418 19.1144L29.3955 19.4644L29.0543 19.7094C28.7512 19.4113 28.5129 19.0538 28.3543 18.6594C28.1224 18.1344 27.9955 17.6094 27.9605 16.9925V16.9881C27.9204 16.4121 27.9872 15.8337 28.1574 15.2819C28.288 14.8007 28.5395 14.3609 28.888 14.0044C29.0342 13.843 29.2124 13.7137 29.4112 13.6248C29.6101 13.536 29.8252 13.4894 30.043 13.4881C30.4105 13.4881 30.7343 13.6106 31.0711 13.8819C31.456 14.198 31.7554 14.6057 31.9418 15.0675C32.1736 15.5925 32.2918 16.1175 32.3311 16.7388C32.3443 17.0013 32.3443 17.2463 32.3224 17.4869Z" fill="white"/>
<path d="M34.1512 18.9656C34.1949 19.1143 34.4355 19.0925 34.5755 19.1625C34.6937 19.2237 34.7943 19.3594 34.9255 19.3637C35.0568 19.3681 35.258 19.32 35.2755 19.1887C35.2974 19.0225 35.048 18.9131 34.8905 18.8518C34.6849 18.7687 34.4224 18.7294 34.2299 18.8387C34.1862 18.8606 34.138 18.9131 34.1512 18.9656ZM32.7424 18.9656C32.6987 19.1143 32.458 19.0925 32.3224 19.1625C32.1999 19.2237 32.1037 19.3594 31.968 19.3637C31.8368 19.3681 31.6355 19.32 31.618 19.1887C31.5962 19.0225 31.8455 18.9131 32.003 18.8518C32.2087 18.7687 32.4755 18.7294 32.668 18.8387C32.7118 18.8606 32.7555 18.9131 32.7424 18.9656Z" fill="#202020"/>
</svg>
