<svg width="70" height="70" viewBox="0 0 70 70" fill="none" xmlns="http://www.w3.org/2000/svg">
<g clip-path="url(#clip0_54_18)">
<path fill-rule="evenodd" clip-rule="evenodd" d="M41.2168 0C40.7106 0 40.2406 0.108896 39.8068 0.254083C40.7287 0.87114 41.2349 1.68784 41.488 2.61343C41.5061 2.74047 41.5422 2.83121 41.5603 2.95825C41.5784 3.06714 41.5964 3.17604 41.5964 3.28493C41.6688 4.88202 41.1806 5.08166 40.8372 6.02539C40.3129 7.24137 40.4575 8.54808 41.0903 9.60071C41.1445 9.72775 41.2168 9.87294 41.3072 9.99998C40.6202 5.40834 44.4346 4.71868 45.1396 3.28493C45.1939 2.03266 44.1635 1.19782 43.35 0.617058C42.5726 0.145191 41.8676 0 41.2168 0ZM46.9655 1.03448C46.8931 1.4519 46.9474 1.34301 46.9294 1.5608C46.9113 1.70598 46.9113 1.88748 46.8932 2.03266C46.8571 2.17785 46.8209 2.32304 46.7667 2.46824C46.7306 2.61343 46.6763 2.75862 46.6221 2.9038C46.5497 3.049 46.4955 3.17604 46.4232 3.32123C46.369 3.39385 46.3328 3.46641 46.2786 3.53901C46.2425 3.59346 46.2063 3.64791 46.1701 3.70235C46.0797 3.8294 45.9893 3.95643 45.899 4.06533C45.7905 4.17422 45.7001 4.30126 45.5736 4.39201V4.41018C45.4651 4.50093 45.3566 4.60982 45.2301 4.70056C44.8505 4.99094 44.4166 5.20872 44.0189 5.48096C43.8924 5.5717 43.7658 5.6443 43.6573 5.75319C43.5308 5.84393 43.4223 5.93467 43.3139 6.04357C43.1873 6.15246 43.0969 6.26136 42.9885 6.3884C42.8981 6.49729 42.7896 6.62433 42.7173 6.75138C42.6269 6.87841 42.5365 7.00546 42.4642 7.1325C42.3919 7.27768 42.3377 7.40473 42.2654 7.54992C42.2111 7.6951 42.1569 7.82215 42.1207 7.96734C42.0665 8.13068 42.0304 8.27587 41.9942 8.42106C41.9761 8.49369 41.9761 8.5844 41.9581 8.65699C41.9399 8.72962 41.9399 8.80218 41.9219 8.87478C41.9219 9.01997 41.9038 9.18331 41.9038 9.3285C41.9038 9.43739 41.9038 9.54628 41.9219 9.65518C41.9219 9.80037 41.94 9.94555 41.9762 10.1089C41.9943 10.2541 42.0304 10.3993 42.0666 10.5445C42.1208 10.6897 42.157 10.8348 42.2112 10.98C42.2473 11.0708 42.3016 11.1615 42.3377 11.2341L38.1799 9.61888C37.4748 9.41924 36.7879 9.23776 36.0829 9.07442C35.7032 8.98368 35.3236 8.89293 34.944 8.80218C33.8593 8.5844 32.7566 8.42106 31.6539 8.31217C31.6177 8.31217 31.5996 8.294 31.5635 8.294C30.4788 8.18511 29.4122 8.13066 28.3276 8.13066C27.5322 8.13066 26.7368 8.16693 25.9594 8.2214C24.8567 8.29403 23.7539 8.43919 22.6512 8.62067C22.38 8.65694 22.1089 8.71142 21.8377 8.76587C21.2773 8.87475 20.735 9.0018 20.2107 9.12884C19.9396 9.20147 19.6684 9.27403 19.3972 9.34662C19.1261 9.45552 18.873 9.58256 18.6199 9.69145C18.421 9.78219 18.2222 9.87294 18.0233 9.96369C17.9872 9.98186 17.951 9.98186 17.933 9.99996C17.7522 10.0907 17.5895 10.1633 17.4268 10.254C17.3726 10.2722 17.3364 10.2903 17.3002 10.3085C17.1014 10.3992 16.9025 10.5081 16.7398 10.5989C16.6133 10.6533 16.4868 10.7259 16.3783 10.7804C16.3241 10.8166 16.2517 10.853 16.2156 10.8711C16.0529 10.9618 15.8902 11.0526 15.7456 11.1433C15.5829 11.2341 15.4382 11.3248 15.3117 11.4156C15.1852 11.5063 15.0586 11.5789 14.9502 11.6696C14.932 11.6878 14.914 11.6878 14.8959 11.7059C14.7874 11.7785 14.6609 11.8692 14.5524 11.96C14.5524 11.96 14.5343 11.9782 14.5163 11.9963C14.4259 12.0689 14.3355 12.1415 14.2452 12.214C14.209 12.2322 14.1728 12.2685 14.1367 12.2867C14.0463 12.3593 13.9559 12.45 13.8655 12.5226C13.8474 12.5589 13.8113 12.5771 13.7932 12.5952C13.6847 12.7041 13.5763 12.7949 13.4678 12.9038C13.4497 12.9038 13.4497 12.9219 13.4317 12.94C13.3232 13.0308 13.2147 13.1397 13.1063 13.2486C13.0882 13.2667 13.0882 13.2848 13.0701 13.2848C12.9798 13.3756 12.8894 13.4663 12.799 13.5752C12.7628 13.6115 12.7086 13.6478 12.6724 13.6841C12.582 13.793 12.4736 13.9019 12.3651 14.0108C12.347 14.047 12.3109 14.0652 12.2928 14.1015C12.1482 14.2467 12.0216 14.3919 11.877 14.5371C11.8589 14.5553 11.8409 14.5734 11.8228 14.5915C11.5335 14.9001 11.2262 15.2086 10.9008 15.4808C10.5754 15.7712 10.2319 16.0434 9.88845 16.2794C9.5269 16.5335 9.18343 16.7512 8.80379 16.969C8.44224 17.1687 8.06261 17.3502 7.6649 17.5135C7.28527 17.6768 6.88757 17.822 6.48986 17.9491C5.7306 18.1124 4.95326 18.4209 4.28439 18.4754C4.13977 18.4754 3.97707 18.5116 3.83245 18.5298C3.66975 18.5661 3.52513 18.6024 3.38051 18.6387C3.2359 18.6932 3.09127 18.7476 2.94665 18.8021C2.80203 18.8565 2.65741 18.9291 2.51279 19.0017C2.38624 19.0924 2.24163 19.165 2.11508 19.2558C1.98854 19.3465 1.86199 19.4554 1.75353 19.5643C1.62699 19.6551 1.50044 19.7821 1.39197 19.891C1.28351 20.018 1.17504 20.1269 1.08465 20.254C0.994269 20.3991 0.885803 20.5262 0.813489 20.6714C0.723103 20.7984 0.632717 20.9436 0.560403 21.0888C0.488064 21.2521 0.415784 21.3973 0.361551 21.5607C0.307318 21.7059 0.253084 21.8692 0.198851 22.0325C0.162724 22.1777 0.126512 22.3229 0.108466 22.4681C0.108466 22.4863 0.0903601 22.5044 0.0903601 22.5225C0.0542328 22.6859 0.0542328 22.9037 0.0361266 23.0126C0.0180212 23.1396 0 23.2485 0 23.3756C0 23.4482 5.6277e-08 23.5389 0.0181055 23.6115C0.0362109 23.7385 0.0542321 23.8474 0.0904447 23.9563C0.126572 24.0652 0.162784 24.1741 0.216983 24.283V24.3012C0.271216 24.4101 0.34353 24.519 0.415836 24.6278C0.488175 24.7367 0.560463 24.8456 0.650849 24.9545C0.741235 25.0453 0.849701 25.1542 0.958167 25.2449C1.06663 25.3538 1.1751 25.4445 1.30164 25.5353C1.7355 25.9164 1.84397 26.0435 2.40438 26.3338C2.49476 26.3883 2.58516 26.4246 2.69362 26.479C2.71173 26.479 2.72975 26.4972 2.74786 26.4972C2.74786 26.5335 2.74786 26.5516 2.76596 26.5879C2.78407 26.7331 2.8202 26.8783 2.85635 27.0235C2.89248 27.1869 2.94674 27.3321 3.00098 27.4591C3.05521 27.568 3.09136 27.6769 3.1456 27.7858C3.1637 27.822 3.18172 27.8584 3.19983 27.8765C3.27217 28.0217 3.34445 28.1488 3.41675 28.2758C3.50715 28.4028 3.59753 28.5299 3.68792 28.6569C3.77831 28.7658 3.88677 28.8928 3.99524 29.0017C4.10371 29.1106 4.21217 29.2014 4.33872 29.3103C4.33872 29.3103 4.35683 29.3285 4.37485 29.3285C4.48331 29.4192 4.59178 29.51 4.70025 29.5825C4.82678 29.6733 4.95333 29.7459 5.09795 29.8185C5.2245 29.8911 5.36912 29.9637 5.51374 30.0181C5.6222 30.0726 5.74874 30.1089 5.87529 30.1452C5.8934 30.1634 5.91141 30.1634 5.94763 30.1814C6.01997 30.1996 6.11032 30.2177 6.18263 30.2359C6.1284 31.2159 6.11029 32.1415 6.25497 32.4682C6.41766 32.8311 7.21308 31.7241 8.0085 30.4537C7.90003 31.7059 7.82772 33.176 8.0085 33.6115C8.20735 34.0653 9.29201 32.6497 10.232 31.0889C23.0491 28.1125 34.7453 37.0054 35.9746 49.5643C35.7395 47.6042 33.3352 46.5153 32.2325 46.7876C31.6902 48.1306 30.7682 49.8547 29.2858 50.9255C29.4124 49.7277 29.3582 48.4935 29.1051 47.2957C28.7074 48.9654 27.93 50.5262 26.8634 51.8692C25.1461 51.9963 23.4287 51.1614 22.5248 49.9091C22.4525 49.8547 22.4344 49.7458 22.3802 49.6732C22.326 49.5462 22.2717 49.4191 22.2356 49.2921C22.1813 49.165 22.1452 49.038 22.1271 48.911C22.109 48.7839 22.109 48.6569 22.109 48.5117C22.109 48.4209 22.109 48.3302 22.109 48.2395C22.1271 48.1124 22.1632 47.9854 22.1994 47.8583C22.2355 47.7313 22.2717 47.6042 22.3259 47.4772C22.3983 47.3502 22.4525 47.2231 22.5429 47.0961C22.8502 46.2249 22.8502 45.5171 22.2898 45.0997C22.1813 45.0271 22.0728 44.9727 21.9463 44.9182C21.874 44.9001 21.7836 44.8638 21.7113 44.8456C21.6571 44.8274 21.6209 44.8093 21.5667 44.7912C21.4401 44.7549 21.3136 44.7185 21.187 44.7004C21.0605 44.6641 20.934 44.646 20.8074 44.646C20.6809 44.6278 20.5362 44.6097 20.4097 44.6097C20.3193 44.6097 20.2289 44.6279 20.1385 44.6279C19.9939 44.6279 19.8674 44.6461 19.7408 44.6823C19.6143 44.7005 19.4877 44.7186 19.3612 44.7549C19.2347 44.7912 19.1081 44.8276 18.9816 44.882C18.855 44.9364 18.7466 44.9909 18.62 45.0453C18.5116 45.0998 18.4031 45.1724 18.2765 45.2268C14.0645 47.9854 16.5772 54.4464 19.4516 56.3157C18.3669 56.5153 17.2642 56.7513 16.9569 56.9872C16.9388 57.0054 16.9208 57.0235 16.9208 57.0235C17.6981 57.4954 18.5116 57.8946 19.3612 58.2395C20.5182 58.6206 21.7475 58.9654 22.2898 59.1106V59.1288C23.7902 59.4373 25.3088 59.5462 26.8454 59.4555C34.8537 58.8928 41.4159 52.7767 42.609 44.7186C42.6452 44.882 42.6814 45.0272 42.7175 45.1905C42.7717 45.5172 42.844 45.862 42.8802 46.2068V46.225C42.9163 46.3884 42.9344 46.5517 42.9525 46.6969V46.7695C42.9707 46.9329 42.9887 47.0962 42.9887 47.2414C43.0068 47.441 43.0248 47.6407 43.0248 47.8403V48.1307C43.0248 48.2214 43.0429 48.3303 43.0429 48.4211C43.0429 48.53 43.0248 48.6389 43.0248 48.7477V49.0018C43.0248 49.1289 43.0067 49.2378 43.0067 49.3648C43.0067 49.4374 43.0067 49.51 42.9886 49.6007C42.9886 49.7278 42.9705 49.8548 42.9705 50C42.9523 50.0545 42.9523 50.1089 42.9523 50.1634C42.9342 50.3085 42.9162 50.4356 42.8981 50.5808C42.8981 50.6352 42.8981 50.6897 42.88 50.7441C42.8619 50.9256 42.8258 51.0889 42.8077 51.2704V51.2886V51.3068C42.7715 51.4701 42.7353 51.6516 42.6992 51.815V51.8694C42.6631 52.0327 42.6269 52.1961 42.5907 52.3594C42.5907 52.3776 42.5726 52.4139 42.5726 52.432C42.5365 52.5954 42.5003 52.7587 42.4461 52.9221V52.9765C42.3919 53.158 42.3376 53.3213 42.3015 53.4847C42.2834 53.5028 42.2834 53.5209 42.2834 53.5209C42.2291 53.7024 42.1749 53.8839 42.1207 54.0654C42.0483 54.2469 41.9941 54.4102 41.9218 54.5917C41.8495 54.7732 41.7953 54.9547 41.723 55.118C41.6506 55.2995 41.5783 55.4629 41.506 55.6444H41.4879C41.4156 55.8077 41.3433 55.9892 41.2529 56.1525C41.2348 56.207 41.2168 56.2433 41.1987 56.2796C41.1806 56.2978 41.1806 56.3158 41.1625 56.334C39.9875 58.7115 38.252 60.7986 36.0827 62.432C35.9381 62.5227 35.7935 62.6316 35.6489 62.7405C35.6127 62.7768 35.5585 62.795 35.5223 62.8313C35.3958 62.922 35.2692 63.0127 35.1246 63.1035L35.1788 63.2124H35.1969C35.45 63.1761 35.7031 63.1398 35.9562 63.1035H35.9743C36.4443 63.0309 36.9143 62.9402 37.3844 62.8494C37.5109 62.8312 37.6555 62.795 37.7821 62.7587C37.8725 62.7405 37.9448 62.7224 38.0352 62.7042C38.1617 62.686 38.2882 62.6498 38.4148 62.6316C38.5233 62.5953 38.6317 62.5771 38.7402 62.5409C40.5479 62.1053 42.3015 61.5064 43.9827 60.7986C41.1084 64.7369 37.2578 67.9129 32.7565 70C34.8354 69.8548 36.9143 69.51 38.921 68.9292C46.2062 66.7695 52.3345 61.8512 56.0043 55.2269C55.2631 59.4193 53.6 63.412 51.1414 66.8966C52.8949 65.735 54.5039 64.392 55.9681 62.8675C60.0175 58.6207 62.6749 53.2305 63.5788 47.4411C64.1935 50.3086 64.3742 53.2668 64.1031 56.1888C77.1551 37.913 65.1877 18.9656 60.1802 13.9747C60.1621 13.9385 60.1441 13.9203 60.1441 13.884C60.126 13.9021 60.126 13.9021 60.126 13.9202C60.126 13.9021 60.126 13.9021 60.1079 13.884C60.1079 14.1018 60.0898 14.3195 60.0717 14.5373C60.0175 14.9548 59.9633 15.354 59.891 15.7533C59.8006 16.1526 59.6921 16.5518 59.5836 16.9511C59.4571 17.3322 59.3125 17.7315 59.1498 18.1126C58.9871 18.4756 58.8063 18.8567 58.6075 19.2197C58.4086 19.5645 58.1917 19.9275 57.9567 20.2542C57.7217 20.599 57.4686 20.9257 57.2155 21.2342C56.9443 21.5609 56.6551 21.8513 56.3658 22.1417C56.1851 22.305 56.0224 22.4502 55.8416 22.5954C55.697 22.7224 55.5704 22.8313 55.4258 22.9584C55.1004 23.2124 54.775 23.4484 54.4135 23.6662C54.07 23.8839 53.7084 24.1017 53.3469 24.2832C52.9672 24.4647 52.5876 24.628 52.208 24.7914C51.8284 24.9366 51.4306 25.0636 51.0329 25.1725C50.6352 25.2814 50.2194 25.3722 49.8217 25.4447C49.406 25.5174 48.9902 25.5536 48.5925 25.5899C48.3032 25.6081 48.014 25.6262 47.7247 25.6262C47.309 25.6262 46.8932 25.5899 46.4955 25.5536C46.0797 25.5173 45.6639 25.4628 45.2662 25.3721C44.8504 25.2995 44.4527 25.1906 44.055 25.0636H44.0369C44.4346 25.0273 44.8323 24.9909 45.23 24.9184C45.6458 24.8457 46.0435 24.755 46.4412 24.6461C46.8389 24.5372 47.2366 24.4102 47.6162 24.265C48.014 24.1198 48.3936 23.9383 48.7551 23.7568C49.1348 23.5754 49.4782 23.3757 49.8398 23.1579C50.1833 22.922 50.5267 22.6861 50.8521 22.432C51.1775 22.1779 51.4849 21.9057 51.7741 21.6153C52.0814 21.3431 52.3526 21.0345 52.6237 20.726C52.8949 20.3993 53.148 20.0727 53.383 19.746C53.4191 19.6915 53.4553 19.6189 53.4915 19.5645C53.6722 19.2741 53.853 18.9837 54.0157 18.6933C54.2146 18.3304 54.3954 17.9674 54.558 17.5863C54.7207 17.2051 54.8654 16.824 54.9919 16.4247C55.1185 16.0436 55.2088 15.6443 55.2992 15.2451C55.3716 14.8277 55.4438 14.4284 55.48 14.0291C55.5161 13.6117 55.5523 13.1943 55.5523 12.795C55.5523 12.5046 55.5342 12.2142 55.5162 11.9239C55.4801 11.5064 55.4258 11.1072 55.3716 10.7079C55.2993 10.2905 55.2089 9.89119 55.1004 9.49191C54.9739 9.11079 54.8473 8.71151 54.7027 8.33039C54.5581 7.94927 54.3773 7.56814 54.1965 7.20516C53.9977 6.84219 53.7988 6.47921 53.5819 6.13439C53.3469 5.78957 53.1119 5.46289 52.8588 5.1362C52.5877 4.82767 52.3165 4.51915 52.0272 4.21062C51.8826 4.06543 51.7199 3.90209 51.5572 3.7569C50.7437 3.12169 49.8941 2.52278 49.0444 1.97832C48.9179 1.9057 48.8094 1.85128 48.6829 1.79683C48.0863 1.41571 47.5259 1.21596 46.9655 1.03448Z" fill="#E0234E"/>
</g>
<defs>
<clipPath id="clip0_54_18">
<rect width="70" height="70" fill="white"/>
</clipPath>
</defs>
</svg>
