<svg width="65" height="70" viewBox="0 0 65 70" fill="none" xmlns="http://www.w3.org/2000/svg">
<path d="M36.2761 0.746805C34.5523 -0.251171 32.3049 -0.246696 30.5797 0.746805C21.9388 5.65568 13.2977 10.566 4.65528 15.4727C2.97356 16.3834 1.8393 18.2425 1.85739 20.172V49.832C1.84525 51.7993 3.03799 53.6763 4.76308 54.5745C7.24547 55.934 9.65727 57.4315 12.1845 58.7005C15.1039 60.1773 18.7562 60.5038 21.7112 58.9638C24.11 57.6875 25.1754 54.8488 25.1722 52.24C25.1916 42.4515 25.1754 32.6628 25.1797 22.874C25.2368 22.439 24.9194 21.974 24.4585 21.9845C23.3542 21.9665 22.2484 21.974 21.1442 21.9815C20.7269 21.941 20.3197 22.2978 20.3512 22.7295C20.3364 32.455 20.3542 42.1835 20.3423 51.9105C20.3663 53.256 19.4833 54.549 18.2236 55.0035C15.3144 56.0533 7.01056 50.503 7.01056 50.503C6.70582 50.3578 6.51231 50.0175 6.54218 49.6795C6.54218 39.894 6.54366 30.1083 6.54218 20.3243C6.50029 19.9298 6.73647 19.5745 7.08837 19.4135C15.7008 14.5335 24.3088 9.64136 32.9213 4.75841C33.2205 4.55288 33.6375 4.55351 33.936 4.75991C42.5484 9.64136 51.1579 14.529 59.7719 19.4092C60.125 19.57 60.3511 19.9313 60.3151 20.3243C60.3137 30.1083 60.318 39.894 60.3122 49.6783C60.3377 50.0245 60.1638 50.36 59.8498 50.512C51.3177 55.3655 42.6885 60.0625 34.2337 65.057C33.8648 65.2748 33.4468 65.5215 33.0335 65.2815C30.8101 64.0155 28.6137 62.7003 26.3977 61.422C26.1568 61.2673 25.85 61.2008 25.5987 61.374C24.6051 61.913 23.6706 62.3495 22.5297 62.8145C20.9273 63.4675 21.1833 63.7345 22.6285 64.6013C25.2201 66.111 27.816 67.6148 30.4075 69.1261C32.1136 70.2221 34.4059 70.3 36.1668 69.2873C44.8092 64.3845 53.4488 59.476 62.0928 54.5733C63.8132 53.67 65.012 51.8005 64.9998 49.8318V20.172C65.0166 18.2816 63.9257 16.4557 62.2947 15.5315C53.6237 10.5987 44.9486 5.67661 36.2761 0.746805Z" fill="#8CC84B"/>
<path d="M49.5813 22.8575C46.1766 20.951 42.1262 20.8495 38.3426 21.0988C35.6093 21.3815 32.7345 22.1709 30.7431 24.2217C28.7006 26.2833 28.256 29.6124 29.2262 32.3037C29.9214 34.2055 31.6714 35.4422 33.4812 36.0964C35.8123 36.9578 38.2607 37.2241 40.7099 37.4905C42.9438 37.7334 45.1784 37.9766 47.3255 38.6713C48.2026 38.9755 49.224 39.4408 49.4926 40.4397C49.7408 41.6226 49.4687 42.9975 48.5512 43.8194C45.6367 46.2338 37.5294 45.8638 34.6498 43.9635C33.4855 43.154 32.9839 41.7208 32.7798 40.355C32.7572 39.9294 32.4298 39.5391 31.9883 39.5715C30.8828 39.5577 29.7773 39.5608 28.6718 39.5699C28.2862 39.536 27.8852 39.8233 27.864 40.2354C27.6368 46.4907 33.1257 49.2177 38.2753 49.8181C41.2174 50.1115 44.224 50.0946 47.1212 49.4338C49.299 48.9149 51.4827 47.9591 52.9819 46.2034C54.8306 44.0697 55.1941 40.8929 54.365 38.235C53.7312 36.2518 51.9198 34.9796 50.0681 34.3252C47.55 33.4215 44.5658 32.9357 42.2851 32.7083C38.9701 32.3779 35.0308 32.5129 34.0925 30.2329C33.7183 29.0391 34.0367 27.5567 35.0849 26.8224C37.8583 24.8535 43.5027 25.115 46.3748 26.5859C47.6936 27.2771 48.4578 28.6967 48.7732 30.1299C48.8317 30.5508 49.1023 30.9902 49.5679 30.9718C50.6659 30.9948 51.7638 30.978 52.8615 30.9795C53.2386 31.007 53.6515 30.7843 53.7252 30.3802C53.6786 27.3848 52.2172 24.3184 49.5813 22.8575Z" fill="#8CC84B"/>
</svg>
