<svg width="70" height="70" viewBox="0 0 70 70" fill="none" xmlns="http://www.w3.org/2000/svg">
<path d="M39.0666 0.746805C37.2102 -0.251171 34.7899 -0.246696 32.9319 0.746805C23.6264 5.65568 14.3206 10.566 5.01334 15.4727C3.20226 16.3834 1.98075 18.2425 2.00023 20.172V49.832C1.98715 51.7993 3.27165 53.6763 5.12944 54.5745C7.80278 55.934 10.4001 57.4315 13.1218 58.7005C16.2656 60.1773 20.199 60.5038 23.3813 58.9638C25.9645 57.6875 27.1119 54.8488 27.1085 52.24C27.1294 42.4515 27.1119 32.6628 27.1166 22.874C27.1781 22.439 26.8362 21.974 26.3398 21.9845C25.1506 21.9665 23.9598 21.974 22.7706 21.9815C22.3213 21.941 21.8827 22.2978 21.9167 22.7295C21.9007 32.455 21.9198 42.1835 21.907 51.9105C21.9329 53.256 20.982 54.549 19.6254 55.0035C16.4924 56.0533 7.54979 50.503 7.54979 50.503C7.22161 50.3578 7.01322 50.0175 7.04539 49.6795C7.04539 39.894 7.04699 30.1083 7.04539 20.3243C7.00027 19.9298 7.25462 19.5745 7.63359 19.4135C16.9086 14.5335 26.1787 9.64136 35.4537 4.75841C35.7759 4.55288 36.2249 4.55351 36.5464 4.75991C45.8213 9.64136 55.0931 14.529 64.3697 19.4092C64.7499 19.57 64.9934 19.9313 64.9547 20.3243C64.9531 30.1083 64.9579 39.894 64.9516 49.6783C64.979 50.0245 64.7918 50.36 64.4536 50.512C55.2652 55.3655 45.9722 60.0625 36.867 65.057C36.4697 65.2748 36.0196 65.5215 35.5745 65.2815C33.1801 64.0155 30.8148 62.7003 28.4282 61.422C28.1688 61.2673 27.8384 61.2008 27.5678 61.374C26.4978 61.913 25.4914 62.3495 24.2627 62.8145C22.5371 63.4675 22.8127 63.7345 24.3691 64.6013C27.16 66.111 29.9556 67.6148 32.7465 69.1261C34.5838 70.2221 37.0525 70.3 38.9489 69.2873C48.256 64.3845 57.5602 59.476 66.8692 54.5733C68.7219 53.67 70.0129 51.8005 69.9998 49.8318V20.172C70.0178 18.2816 68.843 16.4557 67.0865 15.5315C57.7485 10.5987 48.4061 5.67661 39.0666 0.746805Z" fill="#8CC84B"/>
<path d="M53.3952 22.8575C49.7286 20.951 45.3666 20.8495 41.292 21.0988C38.3484 21.3815 35.2525 22.1709 33.108 24.2217C30.9083 26.2833 30.4295 29.6124 31.4743 32.3037C32.223 34.2055 34.1076 35.4422 36.0566 36.0964C38.5671 36.9578 41.2038 37.2241 43.8414 37.4905C46.2471 37.7334 48.6536 37.9766 50.9659 38.6713C51.9104 38.9755 53.0104 39.4408 53.2997 40.4397C53.5669 41.6226 53.274 42.9975 52.2858 43.8194C49.1471 46.2338 40.4163 45.8638 37.3151 43.9635C36.0613 43.154 35.521 41.7208 35.3013 40.355C35.2769 39.9294 34.9243 39.5391 34.4489 39.5715C33.2584 39.5577 32.0679 39.5608 30.8773 39.5699C30.462 39.536 30.0302 39.8233 30.0073 40.2354C29.7627 46.4907 35.6738 49.2177 41.2196 49.8181C44.3879 50.1115 47.6258 50.0946 50.7459 49.4338C53.0912 48.9149 55.4429 47.9591 57.0574 46.2034C59.0483 44.0697 59.4398 40.8929 58.5469 38.235C57.8644 36.2518 55.9136 34.9796 53.9195 34.3252C51.2077 33.4215 47.9939 32.9357 45.5378 32.7083C41.9677 32.3779 37.7254 32.5129 36.715 30.2329C36.312 29.0391 36.6549 27.5567 37.7837 26.8224C40.7704 24.8535 46.849 25.115 49.9421 26.5859C51.3623 27.2771 52.1853 28.6967 52.525 30.1299C52.588 30.5508 52.8794 30.9902 53.3808 30.9718C54.5632 30.9948 55.7456 30.978 56.9277 30.9795C57.3338 31.007 57.7785 30.7843 57.8578 30.3802C57.8077 27.3848 56.2339 24.3184 53.3952 22.8575Z" fill="#8CC84B"/>
</svg>
