<svg width="70" height="70" viewBox="0 0 70 70" fill="none" xmlns="http://www.w3.org/2000/svg">
<path d="M23.2926 56.2931C22.9511 55.6639 22.8302 54.9385 22.9491 54.2325H8.41538L30.0038 16.2247L39.1016 32.4341L41.9629 30.2991L32.9788 14.1466C32.6783 13.5943 32.2466 13.1245 31.7217 12.7785C31.1968 12.4325 30.5948 12.221 29.9688 12.1625C29.3385 12.1885 28.7283 12.392 28.2085 12.7496C27.6888 13.1072 27.2806 13.6043 27.031 14.1838L5.15601 52.6684C4.82328 53.2079 4.63148 53.8224 4.59823 54.4554C4.56497 55.0884 4.69133 55.7196 4.9657 56.2909C5.29841 56.8211 5.77347 57.247 6.33664 57.52C6.89981 57.7931 7.52841 57.9024 8.1507 57.8353H26.4688C25.8478 57.9045 25.2198 57.7976 24.6566 57.5268C24.0934 57.256 23.6177 56.8323 23.2838 56.3041L23.2926 56.2931Z" fill="#00C58E"/>
<path d="M64.8287 52.745L47.2259 21.4878C46.9397 20.9354 46.5189 20.464 46.0024 20.1172C45.4858 19.7704 44.8902 19.5594 44.2705 19.5038C43.6548 19.5299 43.059 19.7302 42.5526 20.0814C42.0461 20.4326 41.6496 20.9203 41.4093 21.4878L39.0818 25.2066V32.4253L44.2684 23.52L61.6612 54.3003H55.044C55.1493 54.9235 55.0559 55.5641 54.7771 56.1313L54.7202 56.245C54.3619 56.7532 53.8838 57.1651 53.3282 57.4444C52.7727 57.7237 52.1568 57.8617 51.5352 57.8463H61.8908C62.5127 57.8635 63.1292 57.7262 63.685 57.4468C64.2409 57.1673 64.7187 56.7544 65.0759 56.245C65.3554 55.6929 65.4784 55.0748 65.4313 54.4577C65.3843 53.8407 65.169 53.2483 64.809 52.745H64.8287Z" fill="#108775"/>
<path d="M55.1971 56.2188L55.254 56.105L55.4071 55.801C55.5938 55.313 55.64 54.7826 55.5405 54.2697C55.4428 53.7099 55.2426 53.173 54.9499 52.6859L41.1993 28.8422L39.1211 25.2197H39.084L36.9861 28.8247L23.2552 52.6684C22.9876 53.1548 22.807 53.6841 22.7215 54.2325C22.5919 54.9362 22.7061 55.6631 23.0452 56.2931C23.3909 56.8235 23.8769 57.2474 24.4493 57.5178C25.0217 57.7881 25.6579 57.8943 26.2871 57.8244H51.8983C52.5388 57.8448 53.1746 57.7076 53.7497 57.425C54.3249 57.1424 54.8219 56.7229 55.1971 56.2035V56.2188ZM39.0818 32.4538L51.6686 54.25H26.4949L39.0818 32.4538Z" fill="#2F495E"/>
</svg>
