<svg width="70" height="70" viewBox="0 0 70 70" fill="none" xmlns="http://www.w3.org/2000/svg">
<path d="M68.6763 41.9166C68.2693 40.6842 67.2032 39.8256 65.8243 39.6194C65.1742 39.5224 64.4296 39.5638 63.5486 39.7455C62.0129 40.0623 60.8735 40.1828 60.0421 40.2064C63.1805 34.9073 65.7326 28.8643 67.2018 23.176C69.5774 13.9783 68.3079 9.78819 66.8244 7.89275C62.8985 2.87631 57.1705 0.181222 50.2598 0.0986078C46.5737 0.0536166 43.3373 0.781472 41.6493 1.30475C40.0774 1.02759 38.3872 0.872708 36.6137 0.84402C33.2898 0.791034 30.3527 1.5156 27.8431 3.00485C26.4533 2.53519 24.2237 1.87286 21.6485 1.45007C15.5918 0.455716 10.7105 1.2306 7.14002 3.75293C2.81647 6.80701 0.812088 12.1132 1.18283 19.5242C1.30041 21.8772 2.61675 29.0361 4.68917 35.8257C5.88027 39.7281 7.15037 42.9688 8.46421 45.4586C10.3273 48.989 12.3209 51.0682 14.559 51.8147C15.8136 52.2328 18.0928 52.5253 20.4902 50.5291C20.794 50.8969 21.1992 51.2626 21.7374 51.6021C22.4206 52.0331 23.2561 52.3852 24.0904 52.5938C27.0976 53.3457 29.9144 53.1576 32.3174 52.1039C32.3321 52.5313 32.3436 52.9397 32.3533 53.2922C32.3693 53.8643 32.385 54.425 32.406 54.9494C32.5483 58.4957 32.7896 61.253 33.5044 63.1821C33.5436 63.2884 33.5964 63.4501 33.6523 63.6214C34.0087 64.7134 34.6052 66.5413 36.1222 67.973C37.6935 69.4558 39.5938 69.9108 41.3342 69.9106C42.207 69.9106 43.0399 69.7962 43.7703 69.6396C46.3743 69.0816 49.3315 68.2314 51.4707 65.1854C53.4931 62.3058 54.4763 57.9688 54.6542 51.1348C54.6773 50.9417 54.6986 50.7572 54.7191 50.5813C54.7329 50.4626 54.747 50.3413 54.7613 50.2203L55.2379 50.2621L55.3606 50.2704C58.0127 50.3913 61.2556 49.8288 63.2471 48.9038C64.8208 48.1734 69.8636 45.5112 68.6763 41.9166Z" fill="black"/>
<path d="M64.1415 42.6158C56.256 44.2424 55.7139 41.5726 55.7139 41.5726C64.0398 29.2183 67.5202 13.5364 64.5166 9.69837C56.3226 -0.771109 42.1383 4.18028 41.9016 4.30883L41.8254 4.32247C40.2675 3.99906 38.5239 3.8064 36.5644 3.77442C32.9963 3.71595 30.2898 4.70983 28.236 6.26728C28.236 6.26728 2.93257 -4.15674 4.10939 19.3775C4.35974 24.3842 11.2854 57.2606 19.5461 47.3303C22.5654 43.6992 25.4826 40.629 25.4826 40.629C26.9316 41.5915 28.6662 42.0825 30.4846 41.9062L30.6259 41.7862C30.582 42.2371 30.602 42.6781 30.6824 43.2001C28.5544 45.5777 29.1797 45.9952 24.9256 46.8709C20.621 47.758 23.1498 49.3374 24.8008 49.7501C26.8024 50.2507 31.433 50.9597 34.5619 46.5798L34.4371 47.0795C35.2709 47.7473 35.8564 51.4236 35.7583 54.7561C35.6602 58.0887 35.5946 60.3767 36.2516 62.1638C36.9086 63.9509 37.5634 67.9719 43.1558 66.7736C47.8288 65.7722 50.2503 63.1771 50.5872 58.8484C50.8263 55.771 51.3673 56.2259 51.4015 53.4746L51.8354 52.172C52.3358 48.0003 51.9149 46.6545 54.7938 47.2805L55.4935 47.3419C57.6125 47.4384 60.3858 47.0011 62.0134 46.2446C65.5184 44.618 67.5971 41.9022 64.1412 42.6158H64.1415Z" fill="#336791"/>
<path d="M29.7172 21.6165C29.0067 21.5176 28.3631 21.6091 28.0375 21.8556C27.8542 21.9943 27.7976 22.155 27.7824 22.2657C27.7415 22.5587 27.9468 22.8825 28.0729 23.0496C28.4297 23.5226 28.9511 23.8477 29.4671 23.9194C29.5419 23.9297 29.6162 23.9347 29.6902 23.9347C30.5509 23.9347 31.3331 23.2647 31.4021 22.7701C31.4883 22.1508 30.5891 21.7378 29.7172 21.6165Z" fill="white"/>
<path d="M53.2583 21.6361C53.1906 21.1506 52.3264 21.0122 51.5065 21.1261C50.6879 21.2403 49.8939 21.6098 49.9602 22.0963C50.0135 22.4748 50.6965 23.1208 51.5054 23.1206C51.5736 23.1206 51.6426 23.1161 51.712 23.1064C52.2519 23.0316 52.6481 22.6888 52.8362 22.4911C53.1229 22.1901 53.2886 21.8543 53.2583 21.6361Z" fill="white"/>
<path d="M66.7657 42.431C66.465 41.5218 65.4973 41.2291 63.8894 41.5613C59.1153 42.5465 57.4056 41.864 56.8441 41.4506C60.555 35.7974 63.6077 28.9642 65.2545 22.5885C66.0347 19.5684 66.4656 16.7637 66.5008 14.4778C66.5396 11.9683 66.1125 10.1246 65.231 8.99827C61.6773 4.45744 56.4619 2.0218 50.1486 1.95486C45.8084 1.90611 42.1414 3.01694 41.4304 3.32921C39.9334 2.9569 38.3013 2.72834 36.5247 2.69918C33.2663 2.64651 30.4501 3.42656 28.1182 5.01646C27.1054 4.6396 24.4877 3.74103 21.2867 3.22544C15.7524 2.33423 11.3547 3.00942 8.21624 5.2328C4.47146 7.88587 2.74267 12.6283 3.07768 19.3281C3.19039 21.5823 4.4746 28.5165 6.50156 35.1573C9.16952 43.8977 12.0695 48.8458 15.1211 49.8635C15.4782 49.9826 15.8902 50.066 16.3441 50.066C17.4573 50.066 18.8219 49.5642 20.2419 47.8572C22.6004 45.0198 24.8025 42.6422 25.6142 41.7782C26.8138 42.4222 28.1314 42.7817 29.4794 42.8177C29.4817 42.853 29.4853 42.8883 29.4885 42.9234C29.2181 43.2441 28.9962 43.5252 28.8072 43.7652C27.8733 44.9507 27.679 45.1974 24.6728 45.8165C23.8179 45.9928 21.5465 46.4609 21.5134 48.0529C21.4772 49.7922 24.1979 50.5227 24.5079 50.6001C25.5882 50.8705 26.6288 51.004 27.6213 51.004C30.0351 51.0038 32.1591 50.2106 33.8567 48.6757C33.8043 54.8765 34.063 60.9867 34.8075 62.8484C35.4171 64.3723 36.9069 68.097 41.6124 68.0967C42.3027 68.0967 43.0628 68.0164 43.8988 67.8373C48.8096 66.7843 50.9421 64.6139 51.7671 59.8288C52.2086 57.2715 52.9662 51.1646 53.3224 47.8891C54.0744 48.1236 55.0426 48.231 56.0891 48.2308C58.2719 48.2308 60.7905 47.7671 62.37 47.0339C64.1443 46.21 67.3464 44.1877 66.7657 42.431ZM55.0709 20.2959C55.0546 21.263 54.9216 22.1409 54.7805 23.0573C54.6287 24.0429 54.4716 25.0619 54.4321 26.2989C54.3931 27.5027 54.5434 28.7543 54.6889 29.9645C54.9827 32.4091 55.2841 34.9259 54.117 37.4094C53.9357 37.0872 53.7606 36.7358 53.6 36.3465C53.455 35.9949 53.1401 35.4301 52.7041 34.6483C51.0073 31.6055 47.034 24.48 49.068 21.5723C49.6737 20.7067 51.2113 19.817 55.0709 20.2959ZM50.3926 3.91316C56.0493 4.0381 60.5238 6.15426 63.692 10.2025C66.1219 13.3077 63.4462 27.4368 55.7004 39.626C55.6239 39.5288 55.5459 39.4307 55.4654 39.3301C55.4332 39.2898 55.4005 39.2489 55.3674 39.2075C57.369 35.9018 56.9775 32.6312 56.6292 29.7314C56.4861 28.5414 56.3509 27.4174 56.3853 26.3618C56.4208 25.2425 56.5688 24.2829 56.7118 23.3549C56.8878 22.2111 57.0667 21.0279 57.0173 19.6328C57.0542 19.4866 57.0691 19.3137 57.0498 19.1084C56.9237 17.7706 55.3965 13.7673 52.2835 10.1434C50.5809 8.16162 48.0976 5.94357 44.7071 4.44757C46.1655 4.14533 48.1599 3.86347 50.3926 3.91316ZM18.7393 46.6078C17.175 48.4887 16.0946 48.1283 15.7393 48.0099C13.4244 47.2377 10.7386 42.3453 8.3705 34.5869C6.32143 27.8737 5.12392 21.1233 5.02923 19.2304C4.72997 13.2439 6.18113 9.07163 9.34259 6.8296C14.4876 3.18091 22.9466 5.36479 26.3455 6.47249C26.2966 6.52061 26.2458 6.56576 26.1974 6.61467C20.6199 12.2477 20.7522 21.8717 20.7658 22.4599C20.7654 22.6869 20.7843 23.0083 20.8105 23.4503C20.9064 25.0689 21.085 28.0816 20.608 31.4934C20.1645 34.6638 21.1417 37.767 23.2888 40.0071C23.5111 40.239 23.7431 40.4567 23.9828 40.6616C23.027 41.6851 20.95 43.9483 18.7393 46.6078ZM24.6997 38.655C22.9691 36.8496 22.1833 34.3381 22.5432 31.764C23.0471 28.1598 22.861 25.021 22.7611 23.3346C22.7472 23.0987 22.7348 22.8919 22.7274 22.7288C23.5423 22.0064 27.3182 19.983 30.011 20.6001C31.24 20.8816 31.9886 21.7183 32.2999 23.1577C33.9111 30.6091 32.5132 33.7149 31.39 36.2106C31.1585 36.7248 30.9398 37.2108 30.7529 37.7137L30.6082 38.1023C30.2417 39.085 29.9008 39.9987 29.6895 40.8663C27.85 40.8607 26.0604 40.075 24.6997 38.655ZM24.982 48.7044C24.4449 48.5702 23.9618 48.3371 23.6783 48.1438C23.9151 48.0323 24.3364 47.8809 25.0671 47.7304C28.6035 47.0022 29.1496 46.4885 30.3422 44.9742C30.6158 44.6271 30.9257 44.2335 31.3549 43.7541L31.3554 43.7535C31.9948 43.0377 32.2872 43.159 32.8175 43.379C33.2474 43.5569 33.6659 44.0955 33.8357 44.6884C33.916 44.9684 34.0063 45.5 33.7111 45.9134C31.2196 49.4017 27.5893 49.3568 24.982 48.7044ZM43.4892 65.9266C39.163 66.8536 37.6313 64.6462 36.6219 62.1228C35.9704 60.4935 35.6502 53.1471 35.8774 45.0344C35.8804 44.9264 35.865 44.8221 35.8352 44.7241C35.8094 44.5349 35.7695 44.3435 35.7144 44.1509C35.3764 42.9704 34.5532 41.983 33.5656 41.5737C33.1732 41.4111 32.4529 41.1128 31.5874 41.3341C31.7721 40.5737 32.0922 39.7151 32.4391 38.7851L32.5847 38.3939C32.7487 37.9529 32.9542 37.4961 33.1718 37.0126C34.3472 34.4012 35.957 30.8247 34.2099 22.7446C33.5554 19.7183 31.3701 18.2404 28.0572 18.5836C26.071 18.7891 24.2541 19.5905 23.3479 20.05C23.153 20.1487 22.9748 20.244 22.8083 20.337C23.0612 17.2876 24.0169 11.5891 27.5918 7.98369C29.8425 5.71375 32.8401 4.59273 36.4924 4.65309C43.6886 4.77097 48.3033 8.46402 50.9076 11.5415C53.1517 14.1934 54.3669 16.8647 54.8519 18.3053C51.2048 17.9346 48.7244 18.6546 47.4668 20.4522C44.7313 24.3625 48.9634 31.9524 50.9974 35.6C51.3704 36.2686 51.6924 36.8463 51.7936 37.0918C52.456 38.697 53.3135 39.7687 53.9396 40.5511C54.1315 40.7908 54.3177 41.0233 54.4593 41.2263C53.3547 41.5448 51.3705 42.2805 51.5513 45.9583C51.4055 47.8039 50.3683 56.4441 49.8416 59.4968C49.1462 63.5297 47.6621 65.032 43.4892 65.9266ZM61.5472 45.2615C60.4177 45.7859 58.5274 46.1792 56.7317 46.2636C54.7483 46.3565 53.7388 46.0414 53.5013 45.8477C53.3897 43.5558 54.2429 43.3162 55.1457 43.0628C55.2876 43.0228 55.426 42.9841 55.5596 42.9373C55.6427 43.0049 55.7336 43.072 55.8331 43.1377C57.4273 44.1899 60.2706 44.3034 64.2846 43.4749C64.2993 43.4718 64.3141 43.4689 64.3286 43.466C63.7873 43.9721 62.8609 44.6516 61.5472 45.2615Z" fill="white"/>
</svg>
