<svg width="70" height="70" viewBox="0 0 70 70" fill="none" xmlns="http://www.w3.org/2000/svg">
<path d="M41 33.4999C41 29.9104 38.3139 27 35 27C31.6865 27 29 29.9104 29 33.4999C29 37.0899 31.6865 40 35 40C38.3139 40 41 37.0899 41 33.4999Z" fill="#53C1DE"/>
<path fill-rule="evenodd" clip-rule="evenodd" d="M55.3009 21.0115C56.6209 15.2677 58.2801 4.6165 52.4309 1.00541C46.609 -2.58994 39.0329 4.29941 35.0324 8.43473C31.0436 4.34062 23.2547 -2.51928 17.4105 1.10328C11.5909 4.71069 13.3855 15.1853 14.7348 20.9651C9.30606 22.6161 0 26.1723 0 33.4379C0 40.6829 9.29637 44.5519 14.693 46.2014C13.3387 52.0131 11.6339 62.3381 17.461 65.9375C23.327 69.5594 31.0917 62.8627 35.1293 58.6822C39.1554 62.8419 46.6587 69.5823 52.4818 65.9728C58.3231 62.352 56.8017 51.8436 55.4524 46.0303C60.6837 44.3772 70 40.5925 70 33.4379C70 26.2421 60.644 22.6571 55.3009 21.0115ZM54.6378 42.9496C53.7518 39.9464 52.556 36.7528 51.0932 33.4539C52.4895 30.2327 53.6389 27.0804 54.5001 24.0965C58.4171 25.3126 67.0098 28.0918 67.0098 33.4379C67.0098 38.8342 58.7641 41.6397 54.6378 42.9496ZM50.9833 63.2016C46.6387 65.8945 40.1849 59.4486 37.2115 56.3854C39.1841 54.0752 41.1553 51.3895 43.0792 48.4072C46.4634 48.0859 49.6603 47.5602 52.5597 46.8425C53.5094 50.9545 55.3471 60.4966 50.9833 63.2016ZM18.9551 63.1632C14.61 60.4804 16.596 51.2668 17.5923 46.9858C20.4595 47.6651 23.6334 48.1537 27.0256 48.4482C28.962 51.3663 30.9904 54.0486 33.0344 56.3978C30.509 59.0136 23.3205 65.8584 18.9551 63.1632ZM2.99014 33.4379C2.99014 28.0215 11.5315 25.2623 15.5378 24.0494C16.4139 27.1002 17.5629 30.2902 18.9495 33.516C17.5449 36.7897 16.3795 40.0302 15.4953 43.1171C11.6753 41.9461 2.99014 38.8577 2.99014 33.4379ZM18.9086 3.8745C23.2715 1.17033 30.041 7.7561 32.9371 10.7203C30.9036 13.0587 28.8939 15.7208 26.974 18.6221C23.6819 18.9489 20.5304 19.4735 17.6332 20.1765C16.5462 15.5149 14.5505 6.57576 18.9086 3.8745ZM45.2184 22.1025C47.4518 22.4043 49.5917 22.8058 51.601 23.2969C50.9978 25.3672 50.246 27.5321 49.3605 29.7513C48.0769 27.1435 46.6991 24.588 45.2184 22.1025ZM35.0334 13.0086C36.4126 14.6085 37.7939 16.3952 39.1529 18.3335C36.3965 18.1938 33.6357 18.1933 30.8793 18.3315C32.2394 16.4111 33.6327 14.6271 35.0334 13.0086ZM20.6652 29.749C19.7943 27.5375 19.0493 25.3631 18.4408 23.2632C20.4381 22.7846 22.568 22.3935 24.787 22.0966C23.3021 24.5766 21.9266 27.1311 20.6652 29.749ZM24.8507 45.0078C22.5584 44.7338 20.3963 44.3625 18.3996 43.8971C19.0177 41.7603 19.7792 39.539 20.6686 37.2798C21.9473 39.925 23.3438 42.5043 24.8507 45.0078ZM35.1162 54.0935C33.6989 52.4558 32.2852 50.6445 30.9045 48.6964C33.6765 48.8128 36.4539 48.8131 39.2257 48.6807C37.8625 50.6644 36.4861 52.4783 35.1162 54.0935ZM49.389 37.1649C50.3246 39.4486 51.1133 41.6578 51.7398 43.7585C49.71 44.2545 47.5188 44.654 45.21 44.9506C46.7017 42.418 48.1014 39.8227 49.389 37.1649ZM41.4104 45.3386C37.1702 45.6631 32.9037 45.6595 28.6622 45.3652C26.2521 41.5954 24.1066 37.6308 22.2546 33.5149C24.0977 29.4076 26.2276 25.4507 28.6263 21.6869C32.8708 21.3434 37.1415 21.3423 41.3861 21.6889C43.7642 25.4525 45.8908 29.3991 47.7766 33.4693C45.9132 37.5746 43.7722 41.5395 41.4104 45.3386ZM50.9374 3.77931C55.3014 6.47462 53.3589 16.0472 52.4055 20.2098C49.5014 19.4921 46.3477 18.9582 43.046 18.6263C41.1224 15.6936 39.1295 13.0268 37.1289 10.7187C40.0622 7.69059 46.6156 1.11037 50.9374 3.77931Z" fill="#53C1DE"/>
</svg>
