<svg width="120" height="120" viewBox="0 0 120 120" fill="none" xmlns="http://www.w3.org/2000/svg">
<rect width="120" height="120" fill="#8022D0"/>
<path d="M34.504 88.64C30.7493 88.64 27.3147 88.0213 24.2 86.784C21.0853 85.504 18.3973 83.7333 16.136 81.472C13.9173 79.168 12.1893 76.4587 10.952 73.344C9.71467 70.1867 9.096 66.7307 9.096 62.976C9.096 59.2213 9.71467 55.7867 10.952 52.672C12.1893 49.5573 13.9173 46.8693 16.136 44.608C18.3973 42.304 21.0853 40.5333 24.2 39.296C27.3147 38.016 30.7493 37.376 34.504 37.376C38.2587 37.376 41.672 38.016 44.744 39.296C47.8587 40.5333 50.5467 42.304 52.808 44.608C55.0693 46.8693 56.8187 49.5573 58.056 52.672C59.2933 55.7867 59.912 59.2213 59.912 62.976C59.912 66.7307 59.2933 70.1867 58.056 73.344C56.8187 76.4587 55.0693 79.168 52.808 81.472C50.5467 83.7333 47.8587 85.504 44.744 86.784C41.672 88.0213 38.2587 88.64 34.504 88.64ZM34.504 82.624C37.2773 82.624 39.816 82.1333 42.12 81.152C44.4667 80.128 46.4933 78.7413 48.2 76.992C49.9067 75.2 51.208 73.1093 52.104 70.72C53.0427 68.3307 53.512 65.7493 53.512 62.976C53.512 60.2027 53.0427 57.6213 52.104 55.232C51.208 52.8427 49.9067 50.7733 48.2 49.024C46.4933 47.232 44.4667 45.8453 42.12 44.864C39.816 43.8827 37.2773 43.392 34.504 43.392C31.7307 43.392 29.1707 43.8827 26.824 44.864C24.52 45.8453 22.5147 47.232 20.808 49.024C19.144 50.7733 17.8427 52.8427 16.904 55.232C15.9653 57.6213 15.496 60.2027 15.496 62.976C15.496 65.7493 15.9653 68.3307 16.904 70.72C17.8427 73.1093 19.144 75.2 20.808 76.992C22.5147 78.7413 24.52 80.128 26.824 81.152C29.1707 82.1333 31.7307 82.624 34.504 82.624ZM73.6655 88C72.7268 88 71.9375 87.68 71.2975 87.04C70.6575 86.4 70.3375 85.6107 70.3375 84.672V41.344C70.3375 40.3627 70.6575 39.5733 71.2975 38.976C71.9375 38.336 72.7268 38.016 73.6655 38.016H85.2495C88.9188 38.016 92.2468 38.6347 95.2335 39.872C98.2628 41.0667 100.887 42.7947 103.106 45.056C105.324 47.2747 107.031 49.8987 108.226 52.928C109.42 55.9573 110.018 59.3067 110.018 62.976C110.018 66.6453 109.42 70.016 108.226 73.088C107.031 76.1173 105.324 78.7627 103.106 81.024C100.887 83.2427 98.2628 84.9707 95.2335 86.208C92.2468 87.4027 88.9188 88 85.2495 88H73.6655ZM76.9935 82.112H85.2495C88.8335 82.112 91.9908 81.3013 94.7215 79.68C97.4948 78.016 99.6708 75.7547 101.25 72.896C102.828 69.9947 103.618 66.688 103.618 62.976C103.618 59.2213 102.828 55.9147 101.25 53.056C99.6708 50.1973 97.4948 47.9573 94.7215 46.336C91.9908 44.7147 88.8335 43.904 85.2495 43.904H76.9935V82.112Z" fill="white"/>
</svg>
