<svg width="20" height="20" viewBox="0 0 20 20" fill="none" xmlns="http://www.w3.org/2000/svg">
<g clip-path="url(#clip0_72_25)">
<path d="M19.4493 0.243271C19.1642 -0.0178692 18.7453 -0.0751926 18.4008 0.103637L0.750602 9.2455C0.403232 9.4258 0.207254 9.80698 0.262128 10.1945C0.317002 10.5821 0.611948 10.8932 0.995574 10.9696L8.3756 12.4311L10.3966 19.3369C10.5064 19.7122 10.8405 19.9782 11.231 19.9993C11.2476 20.0003 11.2648 20.0003 11.2819 20.0003C11.6533 20.0003 11.9899 19.7783 12.1335 19.4319L19.6762 1.27607C19.8251 0.917924 19.734 0.505391 19.4493 0.243271ZM14.6606 4.11775L8.76461 10.6276L3.93671 9.67175L14.6606 4.11775ZM11.4324 16.3115L10.1311 11.8657L15.9487 5.44207L11.4324 16.3115Z" fill="white"/>
</g>
<defs>
<clipPath id="clip0_72_25">
<rect width="20" height="20" fill="white"/>
</clipPath>
</defs>
</svg>
